<?xml version="1.0"?>
<!--Icons from directory ""-->
<svg xmlns="http://www.w3.org/2000/svg" width="14" height="238" viewBox="0 0 14 238"><svg xmlns:xlink="http://www.w3.org/1999/xlink" id="Icon_Arrow_Down_Black" xml:space="preserve" viewBox="473 273 14 14" version="1.1" y="0" x="0px" enable-background="new 475 275 10 10" width="14" height="14"><g display="none">	<g display="inline">		<polygon points="482.4 280 481.4 280.8 477.6 276.8 478.4 276"/>	</g>	<g display="inline">		<polygon points="482.4 280 478.4 284 477.6 283.2 481.4 279.2"/>	</g></g><g display="none">	<g display="inline">		<polygon points="480 282.3 479.2 281.5 483.2 277.7 484 278.5"/>	</g>	<g display="inline">		<polygon points="480 282.3 476 278.5 476.8 277.7 480.8 281.5"/>	</g></g>		<polygon points="480 282.3 479.2 281.5 483.2 277.7 484 278.5"/>		<polygon points="480 282.3 476 278.5 476.8 277.7 480.8 281.5"/><g display="none">	<g display="inline">		<polygon points="480 277.7 480.8 278.5 476.8 282.3 476 281.5" fill="#B7B7B7"/>	</g>	<g display="inline">		<polygon points="480 277.7 484 281.5 483.2 282.3 479.2 278.5" fill="#B7B7B7"/>	</g></g><g display="none">	<g display="inline">		<polygon points="480 277.7 480.8 278.5 476.8 282.3 476 281.5"/>	</g>	<g display="inline">		<polygon points="480 277.7 484 281.5 483.2 282.3 479.2 278.5"/>	</g></g><g display="none">	<g display="inline">		<polygon points="477.7 280 478.5 279.2 482.3 283.2 481.5 284" fill="#B7B7B7"/>	</g>	<g display="inline">		<polygon points="477.7 280 481.5 276 482.3 276.8 478.5 280.8" fill="#B7B7B7"/>	</g></g><g display="none">	<g display="inline">		<polygon points="477.7 280 478.5 279.2 482.3 283.2 481.5 284"/>	</g>	<g display="inline">		<polygon points="477.7 280 481.5 276 482.3 276.8 478.5 280.8"/>	</g></g><g display="none">	<g display="inline">			<rect transform="matrix(.7071 .7071 -.7071 .7071 338.58 -257.4)" height="1.1" width="10" y="279.5" x="475" fill="#B7B7B7"/>	</g>	<g display="inline">			<rect transform="matrix(.7071 .7071 -.7071 .7071 338.58 -257.4)" height="10" width="1.1" y="275" x="479.4" fill="#B7B7B7"/>	</g></g><g display="none">	<g display="inline">		<rect y="279.5" x="475" height="1.1" transform="matrix(.7071 .7071 -.7071 .7071 338.58 -257.4)" width="10"/>	</g>	<g display="inline">		<rect y="275" x="479.4" height="10" transform="matrix(.7071 .7071 -.7071 .7071 338.58 -257.4)" width="1.1"/>	</g></g><g display="none">	<g display="inline">		<rect y="279.5" x="475" height="1.1" width="10" fill="#B7B7B7"/>	</g></g><g display="none">	<g display="inline">		<rect y="279.5" x="475" height="1.1" width="10"/>	</g></g><g display="none">	<g display="inline">		<rect y="279.5" x="475" height="1.1" width="10" fill="#B7B7B7"/>	</g>	<g display="inline">		<rect y="275" x="479.4" height="10" width="1.1" fill="#B7B7B7"/>	</g></g><g display="none">	<g display="inline">		<rect y="279.5" x="475" height="1.1" width="10"/>	</g>	<g display="inline">		<rect y="275" x="479.4" height="10" width="1.1"/>	</g></g><path id="Icon_Arrow_Down_Black-Search_1_" d="m484.5 283.8l-3-3c0.1-0.1 0.2-0.3 0.3-0.4 0.3-0.5 0.4-1 0.4-1.6 0-1.8-1.5-3.3-3.3-3.3s-3.3 1.5-3.3 3.3 1.5 3.3 3.3 3.3c0.6 0 1.2-0.2 1.7-0.5l0.1-0.1 3.1 3.1 0.7-0.8zm-5.7-2.9c-1.2 0-2.2-1-2.2-2.2s1-2.2 2.2-2.2c1.2 0 2.2 1 2.2 2.2 0 0.4-0.1 0.7-0.3 1.1-0.2 0.3-0.5 0.6-0.8 0.8-0.4 0.2-0.8 0.3-1.1 0.3z" fill="#B7B7B7" display="none"/><path id="Icon_Arrow_Down_Black-Search" d="m484.5 283.8l-3-3c0.1-0.1 0.2-0.3 0.3-0.4 0.3-0.5 0.4-1 0.4-1.6 0-1.8-1.5-3.3-3.3-3.3s-3.3 1.5-3.3 3.3 1.5 3.3 3.3 3.3c0.6 0 1.2-0.2 1.7-0.5l0.1-0.1 3.1 3.1 0.7-0.8zm-5.7-2.9c-1.2 0-2.2-1-2.2-2.2s1-2.2 2.2-2.2c1.2 0 2.2 1 2.2 2.2 0 0.4-0.1 0.7-0.3 1.1-0.2 0.3-0.5 0.6-0.8 0.8-0.4 0.2-0.8 0.3-1.1 0.3z" display="none"/></svg><svg xmlns:xlink="http://www.w3.org/1999/xlink" id="Icon_Arrow_Down_Grey" xml:space="preserve" viewBox="473 273 14 14" version="1.1" y="14" x="0px" enable-background="new 475 275 10 10" width="14" height="14"><g display="none">	<g display="inline">		<polygon points="482.4 280 481.4 280.8 477.6 276.8 478.4 276"/>	</g>	<g display="inline">		<polygon points="482.4 280 478.4 284 477.6 283.2 481.4 279.2"/>	</g></g>		<polygon points="480 282.3 479.2 281.5 483.2 277.7 484 278.5" fill="#B7B7B7"/>		<polygon points="480 282.3 476 278.5 476.8 277.7 480.8 281.5" fill="#B7B7B7"/><g display="none">	<g display="inline">		<polygon points="480 282.3 479.2 281.5 483.2 277.7 484 278.5"/>	</g>	<g display="inline">		<polygon points="480 282.3 476 278.5 476.8 277.7 480.8 281.5"/>	</g></g><g display="none">	<g display="inline">		<polygon points="480 277.7 480.8 278.5 476.8 282.3 476 281.5" fill="#B7B7B7"/>	</g>	<g display="inline">		<polygon points="480 277.7 484 281.5 483.2 282.3 479.2 278.5" fill="#B7B7B7"/>	</g></g><g display="none">	<g display="inline">		<polygon points="480 277.7 480.8 278.5 476.8 282.3 476 281.5"/>	</g>	<g display="inline">		<polygon points="480 277.7 484 281.5 483.2 282.3 479.2 278.5"/>	</g></g><g display="none">	<g display="inline">		<polygon points="477.7 280 478.5 279.2 482.3 283.2 481.5 284" fill="#B7B7B7"/>	</g>	<g display="inline">		<polygon points="477.7 280 481.5 276 482.3 276.8 478.5 280.8" fill="#B7B7B7"/>	</g></g><g display="none">	<g display="inline">		<polygon points="477.7 280 478.5 279.2 482.3 283.2 481.5 284"/>	</g>	<g display="inline">		<polygon points="477.7 280 481.5 276 482.3 276.8 478.5 280.8"/>	</g></g><g display="none">	<g display="inline">			<rect transform="matrix(.7071 .7071 -.7071 .7071 338.58 -257.4)" height="1.1" width="10" y="279.5" x="475" fill="#B7B7B7"/>	</g>	<g display="inline">			<rect transform="matrix(.7071 .7071 -.7071 .7071 338.58 -257.4)" height="10" width="1.1" y="275" x="479.4" fill="#B7B7B7"/>	</g></g><g display="none">	<g display="inline">		<rect y="279.5" x="475" height="1.1" transform="matrix(.7071 .7071 -.7071 .7071 338.58 -257.4)" width="10"/>	</g>	<g display="inline">		<rect y="275" x="479.4" height="10" transform="matrix(.7071 .7071 -.7071 .7071 338.58 -257.4)" width="1.1"/>	</g></g><g display="none">	<g display="inline">		<rect y="279.5" x="475" height="1.1" width="10" fill="#B7B7B7"/>	</g></g><g display="none">	<g display="inline">		<rect y="279.5" x="475" height="1.1" width="10"/>	</g></g><g display="none">	<g display="inline">		<rect y="279.5" x="475" height="1.1" width="10" fill="#B7B7B7"/>	</g>	<g display="inline">		<rect y="275" x="479.4" height="10" width="1.1" fill="#B7B7B7"/>	</g></g><g display="none">	<g display="inline">		<rect y="279.5" x="475" height="1.1" width="10"/>	</g>	<g display="inline">		<rect y="275" x="479.4" height="10" width="1.1"/>	</g></g><path id="Icon_Arrow_Down_Grey-Search_1_" d="m484.5 283.8l-3-3c0.1-0.1 0.2-0.3 0.3-0.4 0.3-0.5 0.4-1 0.4-1.6 0-1.8-1.5-3.3-3.3-3.3s-3.3 1.5-3.3 3.3 1.5 3.3 3.3 3.3c0.6 0 1.2-0.2 1.7-0.5l0.1-0.1 3.1 3.1 0.7-0.8zm-5.7-2.9c-1.2 0-2.2-1-2.2-2.2s1-2.2 2.2-2.2c1.2 0 2.2 1 2.2 2.2 0 0.4-0.1 0.7-0.3 1.1-0.2 0.3-0.5 0.6-0.8 0.8-0.4 0.2-0.8 0.3-1.1 0.3z" fill="#B7B7B7" display="none"/><path id="Icon_Arrow_Down_Grey-Search" d="m484.5 283.8l-3-3c0.1-0.1 0.2-0.3 0.3-0.4 0.3-0.5 0.4-1 0.4-1.6 0-1.8-1.5-3.3-3.3-3.3s-3.3 1.5-3.3 3.3 1.5 3.3 3.3 3.3c0.6 0 1.2-0.2 1.7-0.5l0.1-0.1 3.1 3.1 0.7-0.8zm-5.7-2.9c-1.2 0-2.2-1-2.2-2.2s1-2.2 2.2-2.2c1.2 0 2.2 1 2.2 2.2 0 0.4-0.1 0.7-0.3 1.1-0.2 0.3-0.5 0.6-0.8 0.8-0.4 0.2-0.8 0.3-1.1 0.3z" display="none"/></svg><svg xmlns:xlink="http://www.w3.org/1999/xlink" id="Icon_Arrow_Left_Black" xml:space="preserve" viewBox="473 273 14 14" version="1.1" y="28" x="0px" enable-background="new 475 275 10 10" width="14" height="14"><g display="none">	<g display="inline">		<polygon points="482.4 280 481.4 280.8 477.6 276.8 478.4 276"/>	</g>	<g display="inline">		<polygon points="482.4 280 478.4 284 477.6 283.2 481.4 279.2"/>	</g></g><g display="none">	<g display="inline">		<polygon points="480 282.3 479.2 281.5 483.2 277.7 484 278.5"/>	</g>	<g display="inline">		<polygon points="480 282.3 476 278.5 476.8 277.7 480.8 281.5"/>	</g></g><g display="none">	<g display="inline">		<polygon points="480 277.7 480.8 278.5 476.8 282.3 476 281.5"/>	</g>	<g display="inline">		<polygon points="480 277.7 484 281.5 483.2 282.3 479.2 278.5"/>	</g></g><g display="none">	<g display="inline">		<polygon points="477.7 280 478.5 279.2 482.3 283.2 481.5 284" fill="#B7B7B7"/>	</g>	<g display="inline">		<polygon points="477.7 280 481.5 276 482.3 276.8 478.5 280.8" fill="#B7B7B7"/>	</g></g>		<polygon points="477.7 280 478.5 279.2 482.3 283.2 481.5 284"/>		<polygon points="477.7 280 481.5 276 482.3 276.8 478.5 280.8"/><g display="none">	<g display="inline">			<rect transform="matrix(.7071 .7071 -.7071 .7071 338.58 -257.4)" height="1.1" width="10" y="279.5" x="475" fill="#B7B7B7"/>	</g>	<g display="inline">			<rect transform="matrix(.7071 .7071 -.7071 .7071 338.58 -257.4)" height="10" width="1.1" y="275" x="479.4" fill="#B7B7B7"/>	</g></g><g display="none">	<g display="inline">		<rect y="279.5" x="475" height="1.1" transform="matrix(.7071 .7071 -.7071 .7071 338.58 -257.4)" width="10"/>	</g>	<g display="inline">		<rect y="275" x="479.4" height="10" transform="matrix(.7071 .7071 -.7071 .7071 338.58 -257.4)" width="1.1"/>	</g></g><g display="none">	<g display="inline">		<rect y="279.5" x="475" height="1.1" width="10" fill="#B7B7B7"/>	</g></g><g display="none">	<g display="inline">		<rect y="279.5" x="475" height="1.1" width="10"/>	</g></g><g display="none">	<g display="inline">		<rect y="279.5" x="475" height="1.1" width="10" fill="#B7B7B7"/>	</g>	<g display="inline">		<rect y="275" x="479.4" height="10" width="1.1" fill="#B7B7B7"/>	</g></g><g display="none">	<g display="inline">		<rect y="279.5" x="475" height="1.1" width="10"/>	</g>	<g display="inline">		<rect y="275" x="479.4" height="10" width="1.1"/>	</g></g><path id="Icon_Arrow_Left_Black-Search_1_" d="m484.5 283.8l-3-3c0.1-0.1 0.2-0.3 0.3-0.4 0.3-0.5 0.4-1 0.4-1.6 0-1.8-1.5-3.3-3.3-3.3s-3.3 1.5-3.3 3.3 1.5 3.3 3.3 3.3c0.6 0 1.2-0.2 1.7-0.5l0.1-0.1 3.1 3.1 0.7-0.8zm-5.7-2.9c-1.2 0-2.2-1-2.2-2.2s1-2.2 2.2-2.2c1.2 0 2.2 1 2.2 2.2 0 0.4-0.1 0.7-0.3 1.1-0.2 0.3-0.5 0.6-0.8 0.8-0.4 0.2-0.8 0.3-1.1 0.3z" fill="#B7B7B7" display="none"/><path id="Icon_Arrow_Left_Black-Search" d="m484.5 283.8l-3-3c0.1-0.1 0.2-0.3 0.3-0.4 0.3-0.5 0.4-1 0.4-1.6 0-1.8-1.5-3.3-3.3-3.3s-3.3 1.5-3.3 3.3 1.5 3.3 3.3 3.3c0.6 0 1.2-0.2 1.7-0.5l0.1-0.1 3.1 3.1 0.7-0.8zm-5.7-2.9c-1.2 0-2.2-1-2.2-2.2s1-2.2 2.2-2.2c1.2 0 2.2 1 2.2 2.2 0 0.4-0.1 0.7-0.3 1.1-0.2 0.3-0.5 0.6-0.8 0.8-0.4 0.2-0.8 0.3-1.1 0.3z" display="none"/></svg><svg xmlns:xlink="http://www.w3.org/1999/xlink" id="Icon_Arrow_Left_Grey" xml:space="preserve" viewBox="473 273 14 14" version="1.1" y="42" x="0px" enable-background="new 475 275 10 10" width="14" height="14"><g display="none">	<g display="inline">		<polygon points="482.4 280 481.4 280.8 477.6 276.8 478.4 276"/>	</g>	<g display="inline">		<polygon points="482.4 280 478.4 284 477.6 283.2 481.4 279.2"/>	</g></g><g display="none">	<g display="inline">		<polygon points="480 282.3 479.2 281.5 483.2 277.7 484 278.5"/>	</g>	<g display="inline">		<polygon points="480 282.3 476 278.5 476.8 277.7 480.8 281.5"/>	</g></g><g display="none">	<g display="inline">		<polygon points="480 277.7 480.8 278.5 476.8 282.3 476 281.5"/>	</g>	<g display="inline">		<polygon points="480 277.7 484 281.5 483.2 282.3 479.2 278.5"/>	</g></g>		<polygon points="477.7 280 478.5 279.2 482.3 283.2 481.5 284" fill="#B7B7B7"/>		<polygon points="477.7 280 481.5 276 482.3 276.8 478.5 280.8" fill="#B7B7B7"/><g display="none">	<g display="inline">		<polygon points="477.7 280 478.5 279.2 482.3 283.2 481.5 284"/>	</g>	<g display="inline">		<polygon points="477.7 280 481.5 276 482.3 276.8 478.5 280.8"/>	</g></g><g display="none">	<g display="inline">			<rect transform="matrix(.7071 .7071 -.7071 .7071 338.58 -257.4)" height="1.1" width="10" y="279.5" x="475" fill="#B7B7B7"/>	</g>	<g display="inline">			<rect transform="matrix(.7071 .7071 -.7071 .7071 338.58 -257.4)" height="10" width="1.1" y="275" x="479.4" fill="#B7B7B7"/>	</g></g><g display="none">	<g display="inline">		<rect y="279.5" x="475" height="1.1" transform="matrix(.7071 .7071 -.7071 .7071 338.58 -257.4)" width="10"/>	</g>	<g display="inline">		<rect y="275" x="479.4" height="10" transform="matrix(.7071 .7071 -.7071 .7071 338.58 -257.4)" width="1.1"/>	</g></g><g display="none">	<g display="inline">		<rect y="279.5" x="475" height="1.1" width="10" fill="#B7B7B7"/>	</g></g><g display="none">	<g display="inline">		<rect y="279.5" x="475" height="1.1" width="10"/>	</g></g><g display="none">	<g display="inline">		<rect y="279.5" x="475" height="1.1" width="10" fill="#B7B7B7"/>	</g>	<g display="inline">		<rect y="275" x="479.4" height="10" width="1.1" fill="#B7B7B7"/>	</g></g><g display="none">	<g display="inline">		<rect y="279.5" x="475" height="1.1" width="10"/>	</g>	<g display="inline">		<rect y="275" x="479.4" height="10" width="1.1"/>	</g></g><path id="Icon_Arrow_Left_Grey-Search_1_" d="m484.5 283.8l-3-3c0.1-0.1 0.2-0.3 0.3-0.4 0.3-0.5 0.4-1 0.4-1.6 0-1.8-1.5-3.3-3.3-3.3s-3.3 1.5-3.3 3.3 1.5 3.3 3.3 3.3c0.6 0 1.2-0.2 1.7-0.5l0.1-0.1 3.1 3.1 0.7-0.8zm-5.7-2.9c-1.2 0-2.2-1-2.2-2.2s1-2.2 2.2-2.2c1.2 0 2.2 1 2.2 2.2 0 0.4-0.1 0.7-0.3 1.1-0.2 0.3-0.5 0.6-0.8 0.8-0.4 0.2-0.8 0.3-1.1 0.3z" fill="#B7B7B7" display="none"/><path id="Icon_Arrow_Left_Grey-Search" d="m484.5 283.8l-3-3c0.1-0.1 0.2-0.3 0.3-0.4 0.3-0.5 0.4-1 0.4-1.6 0-1.8-1.5-3.3-3.3-3.3s-3.3 1.5-3.3 3.3 1.5 3.3 3.3 3.3c0.6 0 1.2-0.2 1.7-0.5l0.1-0.1 3.1 3.1 0.7-0.8zm-5.7-2.9c-1.2 0-2.2-1-2.2-2.2s1-2.2 2.2-2.2c1.2 0 2.2 1 2.2 2.2 0 0.4-0.1 0.7-0.3 1.1-0.2 0.3-0.5 0.6-0.8 0.8-0.4 0.2-0.8 0.3-1.1 0.3z" display="none"/></svg><svg xmlns:xlink="http://www.w3.org/1999/xlink" id="Icon_Arrow_Right_Black" xml:space="preserve" viewBox="473 273 14 14" version="1.1" y="56" x="0px" enable-background="new 475 275 10 10" width="14" height="14">		<polygon points="482.4 280 481.4 280.8 477.6 276.8 478.4 276"/>		<polygon points="482.4 280 478.4 284 477.6 283.2 481.4 279.2"/><g display="none">	<g display="inline">		<polygon points="480 282.3 479.2 281.5 483.2 277.7 484 278.5" fill="#B7B7B7"/>	</g>	<g display="inline">		<polygon points="480 282.3 476 278.5 476.8 277.7 480.8 281.5" fill="#B7B7B7"/>	</g></g><g display="none">	<g display="inline">		<polygon points="480 282.3 479.2 281.5 483.2 277.7 484 278.5"/>	</g>	<g display="inline">		<polygon points="480 282.3 476 278.5 476.8 277.7 480.8 281.5"/>	</g></g><g display="none">	<g display="inline">		<polygon points="480 277.7 480.8 278.5 476.8 282.3 476 281.5" fill="#B7B7B7"/>	</g>	<g display="inline">		<polygon points="480 277.7 484 281.5 483.2 282.3 479.2 278.5" fill="#B7B7B7"/>	</g></g><g display="none">	<g display="inline">		<polygon points="480 277.7 480.8 278.5 476.8 282.3 476 281.5"/>	</g>	<g display="inline">		<polygon points="480 277.7 484 281.5 483.2 282.3 479.2 278.5"/>	</g></g><g display="none">	<g display="inline">		<polygon points="477.7 280 478.5 279.2 482.3 283.2 481.5 284" fill="#B7B7B7"/>	</g>	<g display="inline">		<polygon points="477.7 280 481.5 276 482.3 276.8 478.5 280.8" fill="#B7B7B7"/>	</g></g><g display="none">	<g display="inline">		<polygon points="477.7 280 478.5 279.2 482.3 283.2 481.5 284"/>	</g>	<g display="inline">		<polygon points="477.7 280 481.5 276 482.3 276.8 478.5 280.8"/>	</g></g><g display="none">	<g display="inline">			<rect transform="matrix(.7071 .7071 -.7071 .7071 338.58 -257.4)" height="1.1" width="10" y="279.5" x="475" fill="#B7B7B7"/>	</g>	<g display="inline">			<rect transform="matrix(.7071 .7071 -.7071 .7071 338.58 -257.4)" height="10" width="1.1" y="275" x="479.4" fill="#B7B7B7"/>	</g></g><g display="none">	<g display="inline">		<rect y="279.5" x="475" height="1.1" transform="matrix(.7071 .7071 -.7071 .7071 338.58 -257.4)" width="10"/>	</g>	<g display="inline">		<rect y="275" x="479.4" height="10" transform="matrix(.7071 .7071 -.7071 .7071 338.58 -257.4)" width="1.1"/>	</g></g><g display="none">	<g display="inline">		<rect y="279.5" x="475" height="1.1" width="10" fill="#B7B7B7"/>	</g></g><g display="none">	<g display="inline">		<rect y="279.5" x="475" height="1.1" width="10"/>	</g></g><g display="none">	<g display="inline">		<rect y="279.5" x="475" height="1.1" width="10" fill="#B7B7B7"/>	</g>	<g display="inline">		<rect y="275" x="479.4" height="10" width="1.1" fill="#B7B7B7"/>	</g></g><g display="none">	<g display="inline">		<rect y="279.5" x="475" height="1.1" width="10"/>	</g>	<g display="inline">		<rect y="275" x="479.4" height="10" width="1.1"/>	</g></g><path id="Icon_Arrow_Right_Black-Search_1_" d="m484.5 283.8l-3-3c0.1-0.1 0.2-0.3 0.3-0.4 0.3-0.5 0.4-1 0.4-1.6 0-1.8-1.5-3.3-3.3-3.3s-3.3 1.5-3.3 3.3 1.5 3.3 3.3 3.3c0.6 0 1.2-0.2 1.7-0.5l0.1-0.1 3.1 3.1 0.7-0.8zm-5.7-2.9c-1.2 0-2.2-1-2.2-2.2s1-2.2 2.2-2.2c1.2 0 2.2 1 2.2 2.2 0 0.4-0.1 0.7-0.3 1.1-0.2 0.3-0.5 0.6-0.8 0.8-0.4 0.2-0.8 0.3-1.1 0.3z" fill="#B7B7B7" display="none"/><path id="Icon_Arrow_Right_Black-Search" d="m484.5 283.8l-3-3c0.1-0.1 0.2-0.3 0.3-0.4 0.3-0.5 0.4-1 0.4-1.6 0-1.8-1.5-3.3-3.3-3.3s-3.3 1.5-3.3 3.3 1.5 3.3 3.3 3.3c0.6 0 1.2-0.2 1.7-0.5l0.1-0.1 3.1 3.1 0.7-0.8zm-5.7-2.9c-1.2 0-2.2-1-2.2-2.2s1-2.2 2.2-2.2c1.2 0 2.2 1 2.2 2.2 0 0.4-0.1 0.7-0.3 1.1-0.2 0.3-0.5 0.6-0.8 0.8-0.4 0.2-0.8 0.3-1.1 0.3z" display="none"/></svg><svg xmlns:xlink="http://www.w3.org/1999/xlink" id="Icon_Arrow_Right_Grey" xml:space="preserve" viewBox="473 273 14 14" version="1.1" y="70" x="0px" enable-background="new 475 275 10 10" width="14" height="14">		<polygon points="482.4 280 481.4 280.8 477.6 276.8 478.4 276" fill="#B7B7B7"/>		<polygon points="482.4 280 478.4 284 477.6 283.2 481.4 279.2" fill="#B7B7B7"/><g display="none">	<g display="inline">		<polygon points="482.4 280 481.4 280.8 477.6 276.8 478.4 276"/>	</g>	<g display="inline">		<polygon points="482.4 280 478.4 284 477.6 283.2 481.4 279.2"/>	</g></g><g display="none">	<g display="inline">		<polygon points="480 282.3 479.2 281.5 483.2 277.7 484 278.5" fill="#B7B7B7"/>	</g>	<g display="inline">		<polygon points="480 282.3 476 278.5 476.8 277.7 480.8 281.5" fill="#B7B7B7"/>	</g></g><g display="none">	<g display="inline">		<polygon points="480 282.3 479.2 281.5 483.2 277.7 484 278.5"/>	</g>	<g display="inline">		<polygon points="480 282.3 476 278.5 476.8 277.7 480.8 281.5"/>	</g></g><g display="none">	<g display="inline">		<polygon points="480 277.7 480.8 278.5 476.8 282.3 476 281.5" fill="#B7B7B7"/>	</g>	<g display="inline">		<polygon points="480 277.7 484 281.5 483.2 282.3 479.2 278.5" fill="#B7B7B7"/>	</g></g><g display="none">	<g display="inline">		<polygon points="480 277.7 480.8 278.5 476.8 282.3 476 281.5"/>	</g>	<g display="inline">		<polygon points="480 277.7 484 281.5 483.2 282.3 479.2 278.5"/>	</g></g><g display="none">	<g display="inline">		<polygon points="477.7 280 478.5 279.2 482.3 283.2 481.5 284" fill="#B7B7B7"/>	</g>	<g display="inline">		<polygon points="477.7 280 481.5 276 482.3 276.8 478.5 280.8" fill="#B7B7B7"/>	</g></g><g display="none">	<g display="inline">		<polygon points="477.7 280 478.5 279.2 482.3 283.2 481.5 284"/>	</g>	<g display="inline">		<polygon points="477.7 280 481.5 276 482.3 276.8 478.5 280.8"/>	</g></g><g display="none">	<g display="inline">			<rect transform="matrix(.7071 .7071 -.7071 .7071 338.58 -257.4)" height="1.1" width="10" y="279.5" x="475" fill="#B7B7B7"/>	</g>	<g display="inline">			<rect transform="matrix(.7071 .7071 -.7071 .7071 338.58 -257.4)" height="10" width="1.1" y="275" x="479.4" fill="#B7B7B7"/>	</g></g><g display="none">	<g display="inline">		<rect y="279.5" x="475" height="1.1" transform="matrix(.7071 .7071 -.7071 .7071 338.58 -257.4)" width="10"/>	</g>	<g display="inline">		<rect y="275" x="479.4" height="10" transform="matrix(.7071 .7071 -.7071 .7071 338.58 -257.4)" width="1.1"/>	</g></g><g display="none">	<g display="inline">		<rect y="279.5" x="475" height="1.1" width="10" fill="#B7B7B7"/>	</g></g><g display="none">	<g display="inline">		<rect y="279.5" x="475" height="1.1" width="10"/>	</g></g><g display="none">	<g display="inline">		<rect y="279.5" x="475" height="1.1" width="10" fill="#B7B7B7"/>	</g>	<g display="inline">		<rect y="275" x="479.4" height="10" width="1.1" fill="#B7B7B7"/>	</g></g><g display="none">	<g display="inline">		<rect y="279.5" x="475" height="1.1" width="10"/>	</g>	<g display="inline">		<rect y="275" x="479.4" height="10" width="1.1"/>	</g></g><path id="Icon_Arrow_Right_Grey-Search_1_" d="m484.5 283.8l-3-3c0.1-0.1 0.2-0.3 0.3-0.4 0.3-0.5 0.4-1 0.4-1.6 0-1.8-1.5-3.3-3.3-3.3s-3.3 1.5-3.3 3.3 1.5 3.3 3.3 3.3c0.6 0 1.2-0.2 1.7-0.5l0.1-0.1 3.1 3.1 0.7-0.8zm-5.7-2.9c-1.2 0-2.2-1-2.2-2.2s1-2.2 2.2-2.2c1.2 0 2.2 1 2.2 2.2 0 0.4-0.1 0.7-0.3 1.1-0.2 0.3-0.5 0.6-0.8 0.8-0.4 0.2-0.8 0.3-1.1 0.3z" fill="#B7B7B7" display="none"/><path id="Icon_Arrow_Right_Grey-Search" d="m484.5 283.8l-3-3c0.1-0.1 0.2-0.3 0.3-0.4 0.3-0.5 0.4-1 0.4-1.6 0-1.8-1.5-3.3-3.3-3.3s-3.3 1.5-3.3 3.3 1.5 3.3 3.3 3.3c0.6 0 1.2-0.2 1.7-0.5l0.1-0.1 3.1 3.1 0.7-0.8zm-5.7-2.9c-1.2 0-2.2-1-2.2-2.2s1-2.2 2.2-2.2c1.2 0 2.2 1 2.2 2.2 0 0.4-0.1 0.7-0.3 1.1-0.2 0.3-0.5 0.6-0.8 0.8-0.4 0.2-0.8 0.3-1.1 0.3z" display="none"/></svg><svg xmlns:rdf="http://www.w3.org/1999/02/22-rdf-syntax-ns#" xmlns:cc="http://creativecommons.org/ns#" xmlns:dc="http://purl.org/dc/elements/1.1/" id="Icon_Arrow_Right_White" enable-background="new 475 275 10 10" xml:space="preserve" viewBox="473 273 14 14" version="1.1" y="84" x="0px" width="14" height="14"><g id="Icon_Arrow_Right_White-g3" fill="#fff"><g id="Icon_Arrow_Right_White-g5"><polygon id="Icon_Arrow_Right_White-polygon7" points="482.4 280 481.4 280.8 477.6 276.8 478.4 276" fill="#fff"/></g><g id="Icon_Arrow_Right_White-g9"><polygon id="Icon_Arrow_Right_White-polygon11" points="482.4 280 478.4 284 477.6 283.2 481.4 279.2" fill="#fff"/></g></g><g id="Icon_Arrow_Right_White-g13" display="none"><g id="Icon_Arrow_Right_White-g15" display="inline"><polygon id="Icon_Arrow_Right_White-polygon17" points="480 282.3 479.2 281.5 483.2 277.7 484 278.5" fill="#B7B7B7"/></g><g id="Icon_Arrow_Right_White-g19" display="inline"><polygon id="Icon_Arrow_Right_White-polygon21" points="480 282.3 476 278.5 476.8 277.7 480.8 281.5" fill="#B7B7B7"/></g></g><g id="Icon_Arrow_Right_White-g23" display="none"><g id="Icon_Arrow_Right_White-g25" display="inline"><polygon id="Icon_Arrow_Right_White-polygon27" points="480 282.3 479.2 281.5 483.2 277.7 484 278.5"/></g><g id="Icon_Arrow_Right_White-g29" display="inline"><polygon id="Icon_Arrow_Right_White-polygon31" points="480 282.3 476 278.5 476.8 277.7 480.8 281.5"/></g></g><g id="Icon_Arrow_Right_White-g33" display="none"><g id="Icon_Arrow_Right_White-g35" display="inline"><polygon id="Icon_Arrow_Right_White-polygon37" points="480 277.7 480.8 278.5 476.8 282.3 476 281.5" fill="#B7B7B7"/></g><g id="Icon_Arrow_Right_White-g39" display="inline"><polygon id="Icon_Arrow_Right_White-polygon41" points="480 277.7 484 281.5 483.2 282.3 479.2 278.5" fill="#B7B7B7"/></g></g><g id="Icon_Arrow_Right_White-g43" display="none"><g id="Icon_Arrow_Right_White-g45" display="inline"><polygon id="Icon_Arrow_Right_White-polygon47" points="480 277.7 480.8 278.5 476.8 282.3 476 281.5"/></g><g id="Icon_Arrow_Right_White-g49" display="inline"><polygon id="Icon_Arrow_Right_White-polygon51" points="480 277.7 484 281.5 483.2 282.3 479.2 278.5"/></g></g><g id="Icon_Arrow_Right_White-g53" display="none"><g id="Icon_Arrow_Right_White-g55" display="inline"><polygon id="Icon_Arrow_Right_White-polygon57" points="477.7 280 478.5 279.2 482.3 283.2 481.5 284" fill="#B7B7B7"/></g><g id="Icon_Arrow_Right_White-g59" display="inline"><polygon id="Icon_Arrow_Right_White-polygon61" points="477.7 280 481.5 276 482.3 276.8 478.5 280.8" fill="#B7B7B7"/></g></g><g id="Icon_Arrow_Right_White-g63" display="none"><g id="Icon_Arrow_Right_White-g65" display="inline"><polygon id="Icon_Arrow_Right_White-polygon67" points="477.7 280 478.5 279.2 482.3 283.2 481.5 284"/></g><g id="Icon_Arrow_Right_White-g69" display="inline"><polygon id="Icon_Arrow_Right_White-polygon71" points="477.7 280 481.5 276 482.3 276.8 478.5 280.8"/></g></g><g id="Icon_Arrow_Right_White-g73" display="none"><g id="Icon_Arrow_Right_White-g75" display="inline"><rect id="Icon_Arrow_Right_White-rect77" transform="matrix(.7071 .7071 -.7071 .7071 338.58 -257.4)" height="1.1" width="10" y="279.5" x="475" fill="#B7B7B7"/></g><g id="Icon_Arrow_Right_White-g79" display="inline"><rect id="Icon_Arrow_Right_White-rect81" transform="matrix(.7071 .7071 -.7071 .7071 338.58 -257.4)" height="10" width="1.1" y="275" x="479.4" fill="#B7B7B7"/></g></g><g id="Icon_Arrow_Right_White-g83" display="none"><g id="Icon_Arrow_Right_White-g85" display="inline"><rect id="Icon_Arrow_Right_White-rect87" transform="matrix(.7071 .7071 -.7071 .7071 338.58 -257.4)" height="1.1" width="10" y="279.5" x="475"/></g><g id="Icon_Arrow_Right_White-g89" display="inline"><rect id="Icon_Arrow_Right_White-rect91" transform="matrix(.7071 .7071 -.7071 .7071 338.58 -257.4)" height="10" width="1.1" y="275" x="479.4"/></g></g><g id="Icon_Arrow_Right_White-g93" display="none"><g id="Icon_Arrow_Right_White-g95" display="inline"><rect id="Icon_Arrow_Right_White-rect97" height="1.1" width="10" y="279.5" x="475" fill="#B7B7B7"/></g></g><g id="Icon_Arrow_Right_White-g99" display="none"><g id="Icon_Arrow_Right_White-g101" display="inline"><rect id="Icon_Arrow_Right_White-rect103" y="279.5" x="475" height="1.1" width="10"/></g></g><g id="Icon_Arrow_Right_White-g105" display="none"><g id="Icon_Arrow_Right_White-g107" display="inline"><rect id="Icon_Arrow_Right_White-rect109" height="1.1" width="10" y="279.5" x="475" fill="#B7B7B7"/></g><g id="Icon_Arrow_Right_White-g111" display="inline"><rect id="Icon_Arrow_Right_White-rect113" height="10" width="1.1" y="275" x="479.4" fill="#B7B7B7"/></g></g><g id="Icon_Arrow_Right_White-g115" display="none"><g id="Icon_Arrow_Right_White-g117" display="inline"><rect id="Icon_Arrow_Right_White-rect119" y="279.5" x="475" height="1.1" width="10"/></g><g id="Icon_Arrow_Right_White-g121" display="inline"><rect id="Icon_Arrow_Right_White-rect123" y="275" x="479.4" height="10" width="1.1"/></g></g><path id="Icon_Arrow_Right_White-Search_1_" d="m484.5 283.8l-3-3c0.1-0.1 0.2-0.3 0.3-0.4 0.3-0.5 0.4-1 0.4-1.6 0-1.8-1.5-3.3-3.3-3.3s-3.3 1.5-3.3 3.3 1.5 3.3 3.3 3.3c0.6 0 1.2-0.2 1.7-0.5l0.1-0.1 3.1 3.1 0.7-0.8zm-5.7-2.9c-1.2 0-2.2-1-2.2-2.2s1-2.2 2.2-2.2c1.2 0 2.2 1 2.2 2.2 0 0.4-0.1 0.7-0.3 1.1-0.2 0.3-0.5 0.6-0.8 0.8-0.4 0.2-0.8 0.3-1.1 0.3z" fill="#B7B7B7" display="none"/><path id="Icon_Arrow_Right_White-Search" d="m484.5 283.8l-3-3c0.1-0.1 0.2-0.3 0.3-0.4 0.3-0.5 0.4-1 0.4-1.6 0-1.8-1.5-3.3-3.3-3.3s-3.3 1.5-3.3 3.3 1.5 3.3 3.3 3.3c0.6 0 1.2-0.2 1.7-0.5l0.1-0.1 3.1 3.1 0.7-0.8zm-5.7-2.9c-1.2 0-2.2-1-2.2-2.2s1-2.2 2.2-2.2c1.2 0 2.2 1 2.2 2.2 0 0.4-0.1 0.7-0.3 1.1-0.2 0.3-0.5 0.6-0.8 0.8-0.4 0.2-0.8 0.3-1.1 0.3z" display="none"/></svg><svg xmlns:xlink="http://www.w3.org/1999/xlink" id="Icon_Arrow_Up_Black" xml:space="preserve" viewBox="473 273 14 14" version="1.1" y="98" x="0px" enable-background="new 475 275 10 10" width="14" height="14"><g display="none">	<g display="inline">		<polygon points="482.4 280 481.4 280.8 477.6 276.8 478.4 276"/>	</g>	<g display="inline">		<polygon points="482.4 280 478.4 284 477.6 283.2 481.4 279.2"/>	</g></g><g display="none">	<g display="inline">		<polygon points="480 282.3 479.2 281.5 483.2 277.7 484 278.5"/>	</g>	<g display="inline">		<polygon points="480 282.3 476 278.5 476.8 277.7 480.8 281.5"/>	</g></g><g display="none">	<g display="inline">		<polygon points="480 277.7 480.8 278.5 476.8 282.3 476 281.5"/>	</g>	<g display="inline">		<polygon points="480 277.7 484 281.5 483.2 282.3 479.2 278.5"/>	</g></g>		<polygon points="480 277.7 480.8 278.5 476.8 282.3 476 281.5"/>		<polygon points="480 277.7 484 281.5 483.2 282.3 479.2 278.5"/><g display="none">	<g display="inline">		<polygon points="477.7 280 478.5 279.2 482.3 283.2 481.5 284" fill="#B7B7B7"/>	</g>	<g display="inline">		<polygon points="477.7 280 481.5 276 482.3 276.8 478.5 280.8" fill="#B7B7B7"/>	</g></g><g display="none">	<g display="inline">		<polygon points="477.7 280 478.5 279.2 482.3 283.2 481.5 284"/>	</g>	<g display="inline">		<polygon points="477.7 280 481.5 276 482.3 276.8 478.5 280.8"/>	</g></g><g display="none">	<g display="inline">			<rect transform="matrix(.7071 .7071 -.7071 .7071 338.58 -257.4)" height="1.1" width="10" y="279.5" x="475" fill="#B7B7B7"/>	</g>	<g display="inline">			<rect transform="matrix(.7071 .7071 -.7071 .7071 338.58 -257.4)" height="10" width="1.1" y="275" x="479.4" fill="#B7B7B7"/>	</g></g><g display="none">	<g display="inline">		<rect y="279.5" x="475" height="1.1" transform="matrix(.7071 .7071 -.7071 .7071 338.58 -257.4)" width="10"/>	</g>	<g display="inline">		<rect y="275" x="479.4" height="10" transform="matrix(.7071 .7071 -.7071 .7071 338.58 -257.4)" width="1.1"/>	</g></g><g display="none">	<g display="inline">		<rect y="279.5" x="475" height="1.1" width="10" fill="#B7B7B7"/>	</g></g><g display="none">	<g display="inline">		<rect y="279.5" x="475" height="1.1" width="10"/>	</g></g><g display="none">	<g display="inline">		<rect y="279.5" x="475" height="1.1" width="10" fill="#B7B7B7"/>	</g>	<g display="inline">		<rect y="275" x="479.4" height="10" width="1.1" fill="#B7B7B7"/>	</g></g><g display="none">	<g display="inline">		<rect y="279.5" x="475" height="1.1" width="10"/>	</g>	<g display="inline">		<rect y="275" x="479.4" height="10" width="1.1"/>	</g></g><path id="Icon_Arrow_Up_Black-Search_1_" d="m484.5 283.8l-3-3c0.1-0.1 0.2-0.3 0.3-0.4 0.3-0.5 0.4-1 0.4-1.6 0-1.8-1.5-3.3-3.3-3.3s-3.3 1.5-3.3 3.3 1.5 3.3 3.3 3.3c0.6 0 1.2-0.2 1.7-0.5l0.1-0.1 3.1 3.1 0.7-0.8zm-5.7-2.9c-1.2 0-2.2-1-2.2-2.2s1-2.2 2.2-2.2c1.2 0 2.2 1 2.2 2.2 0 0.4-0.1 0.7-0.3 1.1-0.2 0.3-0.5 0.6-0.8 0.8-0.4 0.2-0.8 0.3-1.1 0.3z" fill="#B7B7B7" display="none"/><path id="Icon_Arrow_Up_Black-Search" d="m484.5 283.8l-3-3c0.1-0.1 0.2-0.3 0.3-0.4 0.3-0.5 0.4-1 0.4-1.6 0-1.8-1.5-3.3-3.3-3.3s-3.3 1.5-3.3 3.3 1.5 3.3 3.3 3.3c0.6 0 1.2-0.2 1.7-0.5l0.1-0.1 3.1 3.1 0.7-0.8zm-5.7-2.9c-1.2 0-2.2-1-2.2-2.2s1-2.2 2.2-2.2c1.2 0 2.2 1 2.2 2.2 0 0.4-0.1 0.7-0.3 1.1-0.2 0.3-0.5 0.6-0.8 0.8-0.4 0.2-0.8 0.3-1.1 0.3z" display="none"/></svg><svg xmlns:xlink="http://www.w3.org/1999/xlink" id="Icon_Arrow_Up_Grey" xml:space="preserve" viewBox="473 273 14 14" version="1.1" y="112" x="0px" enable-background="new 475 275 10 10" width="14" height="14"><g display="none">	<g display="inline">		<polygon points="482.4 280 481.4 280.8 477.6 276.8 478.4 276"/>	</g>	<g display="inline">		<polygon points="482.4 280 478.4 284 477.6 283.2 481.4 279.2"/>	</g></g><g display="none">	<g display="inline">		<polygon points="480 282.3 479.2 281.5 483.2 277.7 484 278.5"/>	</g>	<g display="inline">		<polygon points="480 282.3 476 278.5 476.8 277.7 480.8 281.5"/>	</g></g>		<polygon points="480 277.7 480.8 278.5 476.8 282.3 476 281.5" fill="#B7B7B7"/>		<polygon points="480 277.7 484 281.5 483.2 282.3 479.2 278.5" fill="#B7B7B7"/><g display="none">	<g display="inline">		<polygon points="480 277.7 480.8 278.5 476.8 282.3 476 281.5"/>	</g>	<g display="inline">		<polygon points="480 277.7 484 281.5 483.2 282.3 479.2 278.5"/>	</g></g><g display="none">	<g display="inline">		<polygon points="477.7 280 478.5 279.2 482.3 283.2 481.5 284" fill="#B7B7B7"/>	</g>	<g display="inline">		<polygon points="477.7 280 481.5 276 482.3 276.8 478.5 280.8" fill="#B7B7B7"/>	</g></g><g display="none">	<g display="inline">		<polygon points="477.7 280 478.5 279.2 482.3 283.2 481.5 284"/>	</g>	<g display="inline">		<polygon points="477.7 280 481.5 276 482.3 276.8 478.5 280.8"/>	</g></g><g display="none">	<g display="inline">			<rect transform="matrix(.7071 .7071 -.7071 .7071 338.58 -257.4)" height="1.1" width="10" y="279.5" x="475" fill="#B7B7B7"/>	</g>	<g display="inline">			<rect transform="matrix(.7071 .7071 -.7071 .7071 338.58 -257.4)" height="10" width="1.1" y="275" x="479.4" fill="#B7B7B7"/>	</g></g><g display="none">	<g display="inline">		<rect y="279.5" x="475" height="1.1" transform="matrix(.7071 .7071 -.7071 .7071 338.58 -257.4)" width="10"/>	</g>	<g display="inline">		<rect y="275" x="479.4" height="10" transform="matrix(.7071 .7071 -.7071 .7071 338.58 -257.4)" width="1.1"/>	</g></g><g display="none">	<g display="inline">		<rect y="279.5" x="475" height="1.1" width="10" fill="#B7B7B7"/>	</g></g><g display="none">	<g display="inline">		<rect y="279.5" x="475" height="1.1" width="10"/>	</g></g><g display="none">	<g display="inline">		<rect y="279.5" x="475" height="1.1" width="10" fill="#B7B7B7"/>	</g>	<g display="inline">		<rect y="275" x="479.4" height="10" width="1.1" fill="#B7B7B7"/>	</g></g><g display="none">	<g display="inline">		<rect y="279.5" x="475" height="1.1" width="10"/>	</g>	<g display="inline">		<rect y="275" x="479.4" height="10" width="1.1"/>	</g></g><path id="Icon_Arrow_Up_Grey-Search_1_" d="m484.5 283.8l-3-3c0.1-0.1 0.2-0.3 0.3-0.4 0.3-0.5 0.4-1 0.4-1.6 0-1.8-1.5-3.3-3.3-3.3s-3.3 1.5-3.3 3.3 1.5 3.3 3.3 3.3c0.6 0 1.2-0.2 1.7-0.5l0.1-0.1 3.1 3.1 0.7-0.8zm-5.7-2.9c-1.2 0-2.2-1-2.2-2.2s1-2.2 2.2-2.2c1.2 0 2.2 1 2.2 2.2 0 0.4-0.1 0.7-0.3 1.1-0.2 0.3-0.5 0.6-0.8 0.8-0.4 0.2-0.8 0.3-1.1 0.3z" fill="#B7B7B7" display="none"/><path id="Icon_Arrow_Up_Grey-Search" d="m484.5 283.8l-3-3c0.1-0.1 0.2-0.3 0.3-0.4 0.3-0.5 0.4-1 0.4-1.6 0-1.8-1.5-3.3-3.3-3.3s-3.3 1.5-3.3 3.3 1.5 3.3 3.3 3.3c0.6 0 1.2-0.2 1.7-0.5l0.1-0.1 3.1 3.1 0.7-0.8zm-5.7-2.9c-1.2 0-2.2-1-2.2-2.2s1-2.2 2.2-2.2c1.2 0 2.2 1 2.2 2.2 0 0.4-0.1 0.7-0.3 1.1-0.2 0.3-0.5 0.6-0.8 0.8-0.4 0.2-0.8 0.3-1.1 0.3z" display="none"/></svg><svg xmlns:xlink="http://www.w3.org/1999/xlink" id="Icon_Cross_Black" xml:space="preserve" viewBox="473 273 14 14" version="1.1" y="126" x="0px" enable-background="new 475 275 10 10" width="14" height="14"><g display="none">	<g display="inline">		<polygon points="482.4 280 481.4 280.8 477.6 276.8 478.4 276"/>	</g>	<g display="inline">		<polygon points="482.4 280 478.4 284 477.6 283.2 481.4 279.2"/>	</g></g><g display="none">	<g display="inline">		<polygon points="480 282.3 479.2 281.5 483.2 277.7 484 278.5"/>	</g>	<g display="inline">		<polygon points="480 282.3 476 278.5 476.8 277.7 480.8 281.5"/>	</g></g><g display="none">	<g display="inline">		<polygon points="480 277.7 480.8 278.5 476.8 282.3 476 281.5"/>	</g>	<g display="inline">		<polygon points="480 277.7 484 281.5 483.2 282.3 479.2 278.5"/>	</g></g><g display="none">	<g display="inline">		<polygon points="477.7 280 478.5 279.2 482.3 283.2 481.5 284"/>	</g>	<g display="inline">		<polygon points="477.7 280 481.5 276 482.3 276.8 478.5 280.8"/>	</g></g><g display="none">	<g display="inline">		<rect y="279.5" x="475" height="1.1" transform="matrix(.7071 .7071 -.7071 .7071 338.58 -257.4)" width="10"/>	</g>	<g display="inline">		<rect y="275" x="479.4" height="10" transform="matrix(.7071 .7071 -.7071 .7071 338.58 -257.4)" width="1.1"/>	</g></g>		<rect y="279.5" x="475" height="1.1" transform="matrix(.7071 .7071 -.7071 .7071 338.58 -257.4)" width="10"/>		<rect y="275" x="479.4" height="10" transform="matrix(.7071 .7071 -.7071 .7071 338.58 -257.4)" width="1.1"/><g display="none">	<g display="inline">		<rect y="279.5" x="475" height="1.1" width="10" fill="#B7B7B7"/>	</g></g><g display="none">	<g display="inline">		<rect y="279.5" x="475" height="1.1" width="10"/>	</g></g><g display="none">	<g display="inline">		<rect y="279.5" x="475" height="1.1" width="10" fill="#B7B7B7"/>	</g>	<g display="inline">		<rect y="275" x="479.4" height="10" width="1.1" fill="#B7B7B7"/>	</g></g><g display="none">	<g display="inline">		<rect y="279.5" x="475" height="1.1" width="10"/>	</g>	<g display="inline">		<rect y="275" x="479.4" height="10" width="1.1"/>	</g></g><path id="Icon_Cross_Black-Search_1_" d="m484.5 283.8l-3-3c0.1-0.1 0.2-0.3 0.3-0.4 0.3-0.5 0.4-1 0.4-1.6 0-1.8-1.5-3.3-3.3-3.3s-3.3 1.5-3.3 3.3 1.5 3.3 3.3 3.3c0.6 0 1.2-0.2 1.7-0.5l0.1-0.1 3.1 3.1 0.7-0.8zm-5.7-2.9c-1.2 0-2.2-1-2.2-2.2s1-2.2 2.2-2.2c1.2 0 2.2 1 2.2 2.2 0 0.4-0.1 0.7-0.3 1.1-0.2 0.3-0.5 0.6-0.8 0.8-0.4 0.2-0.8 0.3-1.1 0.3z" fill="#B7B7B7" display="none"/><path id="Icon_Cross_Black-Search" d="m484.5 283.8l-3-3c0.1-0.1 0.2-0.3 0.3-0.4 0.3-0.5 0.4-1 0.4-1.6 0-1.8-1.5-3.3-3.3-3.3s-3.3 1.5-3.3 3.3 1.5 3.3 3.3 3.3c0.6 0 1.2-0.2 1.7-0.5l0.1-0.1 3.1 3.1 0.7-0.8zm-5.7-2.9c-1.2 0-2.2-1-2.2-2.2s1-2.2 2.2-2.2c1.2 0 2.2 1 2.2 2.2 0 0.4-0.1 0.7-0.3 1.1-0.2 0.3-0.5 0.6-0.8 0.8-0.4 0.2-0.8 0.3-1.1 0.3z" display="none"/></svg><svg xmlns:xlink="http://www.w3.org/1999/xlink" id="Icon_Cross_Grey" xml:space="preserve" viewBox="473 273 14 14" version="1.1" y="140" x="0px" enable-background="new 475 275 10 10" width="14" height="14"><g display="none">	<g display="inline">		<polygon points="482.4 280 481.4 280.8 477.6 276.8 478.4 276"/>	</g>	<g display="inline">		<polygon points="482.4 280 478.4 284 477.6 283.2 481.4 279.2"/>	</g></g><g display="none">	<g display="inline">		<polygon points="480 282.3 479.2 281.5 483.2 277.7 484 278.5"/>	</g>	<g display="inline">		<polygon points="480 282.3 476 278.5 476.8 277.7 480.8 281.5"/>	</g></g><g display="none">	<g display="inline">		<polygon points="480 277.7 480.8 278.5 476.8 282.3 476 281.5"/>	</g>	<g display="inline">		<polygon points="480 277.7 484 281.5 483.2 282.3 479.2 278.5"/>	</g></g><g display="none">	<g display="inline">		<polygon points="477.7 280 478.5 279.2 482.3 283.2 481.5 284"/>	</g>	<g display="inline">		<polygon points="477.7 280 481.5 276 482.3 276.8 478.5 280.8"/>	</g></g>			<rect transform="matrix(.7071 .7071 -.7071 .7071 338.58 -257.4)" height="1.1" width="10" y="279.5" x="475" fill="#B7B7B7"/>			<rect transform="matrix(.7071 .7071 -.7071 .7071 338.58 -257.4)" height="10" width="1.1" y="275" x="479.4" fill="#B7B7B7"/><g display="none">	<g display="inline">		<rect y="279.5" x="475" height="1.1" transform="matrix(.7071 .7071 -.7071 .7071 338.58 -257.4)" width="10"/>	</g>	<g display="inline">		<rect y="275" x="479.4" height="10" transform="matrix(.7071 .7071 -.7071 .7071 338.58 -257.4)" width="1.1"/>	</g></g><g display="none">	<g display="inline">		<rect y="279.5" x="475" height="1.1" width="10" fill="#B7B7B7"/>	</g></g><g display="none">	<g display="inline">		<rect y="279.5" x="475" height="1.1" width="10"/>	</g></g><g display="none">	<g display="inline">		<rect y="279.5" x="475" height="1.1" width="10" fill="#B7B7B7"/>	</g>	<g display="inline">		<rect y="275" x="479.4" height="10" width="1.1" fill="#B7B7B7"/>	</g></g><g display="none">	<g display="inline">		<rect y="279.5" x="475" height="1.1" width="10"/>	</g>	<g display="inline">		<rect y="275" x="479.4" height="10" width="1.1"/>	</g></g><path id="Icon_Cross_Grey-Search_1_" d="m484.5 283.8l-3-3c0.1-0.1 0.2-0.3 0.3-0.4 0.3-0.5 0.4-1 0.4-1.6 0-1.8-1.5-3.3-3.3-3.3s-3.3 1.5-3.3 3.3 1.5 3.3 3.3 3.3c0.6 0 1.2-0.2 1.7-0.5l0.1-0.1 3.1 3.1 0.7-0.8zm-5.7-2.9c-1.2 0-2.2-1-2.2-2.2s1-2.2 2.2-2.2c1.2 0 2.2 1 2.2 2.2 0 0.4-0.1 0.7-0.3 1.1-0.2 0.3-0.5 0.6-0.8 0.8-0.4 0.2-0.8 0.3-1.1 0.3z" fill="#B7B7B7" display="none"/><path id="Icon_Cross_Grey-Search" d="m484.5 283.8l-3-3c0.1-0.1 0.2-0.3 0.3-0.4 0.3-0.5 0.4-1 0.4-1.6 0-1.8-1.5-3.3-3.3-3.3s-3.3 1.5-3.3 3.3 1.5 3.3 3.3 3.3c0.6 0 1.2-0.2 1.7-0.5l0.1-0.1 3.1 3.1 0.7-0.8zm-5.7-2.9c-1.2 0-2.2-1-2.2-2.2s1-2.2 2.2-2.2c1.2 0 2.2 1 2.2 2.2 0 0.4-0.1 0.7-0.3 1.1-0.2 0.3-0.5 0.6-0.8 0.8-0.4 0.2-0.8 0.3-1.1 0.3z" display="none"/></svg><svg xmlns:xlink="http://www.w3.org/1999/xlink" id="Icon_Minus_Black-01-01" xml:space="preserve" viewBox="473 273 14 14" version="1.1" y="154" x="0px" enable-background="new 475 275 10 10" width="14" height="14"><g display="none">	<g display="inline">		<polygon points="482.4 280 481.4 280.8 477.6 276.8 478.4 276"/>	</g>	<g display="inline">		<polygon points="482.4 280 478.4 284 477.6 283.2 481.4 279.2"/>	</g></g><g display="none">	<g display="inline">		<polygon points="480 282.3 479.2 281.5 483.2 277.7 484 278.5"/>	</g>	<g display="inline">		<polygon points="480 282.3 476 278.5 476.8 277.7 480.8 281.5"/>	</g></g><g display="none">	<g display="inline">		<polygon points="480 277.7 480.8 278.5 476.8 282.3 476 281.5"/>	</g>	<g display="inline">		<polygon points="480 277.7 484 281.5 483.2 282.3 479.2 278.5"/>	</g></g><g display="none">	<g display="inline">		<polygon points="477.7 280 478.5 279.2 482.3 283.2 481.5 284"/>	</g>	<g display="inline">		<polygon points="477.7 280 481.5 276 482.3 276.8 478.5 280.8"/>	</g></g><g display="none">	<g display="inline">		<rect y="279.5" x="475" height="1.1" transform="matrix(.7071 .7071 -.7071 .7071 338.58 -257.4)" width="10"/>	</g>	<g display="inline">		<rect y="275" x="479.4" height="10" transform="matrix(.7071 .7071 -.7071 .7071 338.58 -257.4)" width="1.1"/>	</g></g><g display="none">	<g display="inline">		<rect y="279.5" x="475" height="1.1" width="10" fill="#B7B7B7"/>	</g></g>		<rect y="279.5" x="475" height="1.1" width="10"/><g display="none">	<g display="inline">		<rect y="279.5" x="475" height="1.1" width="10" fill="#B7B7B7"/>	</g>	<g display="inline">		<rect y="275" x="479.4" height="10" width="1.1" fill="#B7B7B7"/>	</g></g><g display="none">	<g display="inline">		<rect y="279.5" x="475" height="1.1" width="10"/>	</g>	<g display="inline">		<rect y="275" x="479.4" height="10" width="1.1"/>	</g></g><path id="Icon_Minus_Black-01-01-Search_1_" d="m484.5 283.8l-3-3c0.1-0.1 0.2-0.3 0.3-0.4 0.3-0.5 0.4-1 0.4-1.6 0-1.8-1.5-3.3-3.3-3.3s-3.3 1.5-3.3 3.3 1.5 3.3 3.3 3.3c0.6 0 1.2-0.2 1.7-0.5l0.1-0.1 3.1 3.1 0.7-0.8zm-5.7-2.9c-1.2 0-2.2-1-2.2-2.2s1-2.2 2.2-2.2c1.2 0 2.2 1 2.2 2.2 0 0.4-0.1 0.7-0.3 1.1-0.2 0.3-0.5 0.6-0.8 0.8-0.4 0.2-0.8 0.3-1.1 0.3z" fill="#B7B7B7" display="none"/><path id="Icon_Minus_Black-01-01-Search" d="m484.5 283.8l-3-3c0.1-0.1 0.2-0.3 0.3-0.4 0.3-0.5 0.4-1 0.4-1.6 0-1.8-1.5-3.3-3.3-3.3s-3.3 1.5-3.3 3.3 1.5 3.3 3.3 3.3c0.6 0 1.2-0.2 1.7-0.5l0.1-0.1 3.1 3.1 0.7-0.8zm-5.7-2.9c-1.2 0-2.2-1-2.2-2.2s1-2.2 2.2-2.2c1.2 0 2.2 1 2.2 2.2 0 0.4-0.1 0.7-0.3 1.1-0.2 0.3-0.5 0.6-0.8 0.8-0.4 0.2-0.8 0.3-1.1 0.3z" display="none"/></svg><svg xmlns:xlink="http://www.w3.org/1999/xlink" id="Icon_Minus_Grey-01" xml:space="preserve" viewBox="473 273 14 14" version="1.1" y="168" x="0px" enable-background="new 475 275 10 10" width="14" height="14"><g display="none">	<g display="inline">		<polygon points="482.4 280 481.4 280.8 477.6 276.8 478.4 276"/>	</g>	<g display="inline">		<polygon points="482.4 280 478.4 284 477.6 283.2 481.4 279.2"/>	</g></g><g display="none">	<g display="inline">		<polygon points="480 282.3 479.2 281.5 483.2 277.7 484 278.5"/>	</g>	<g display="inline">		<polygon points="480 282.3 476 278.5 476.8 277.7 480.8 281.5"/>	</g></g><g display="none">	<g display="inline">		<polygon points="480 277.7 480.8 278.5 476.8 282.3 476 281.5"/>	</g>	<g display="inline">		<polygon points="480 277.7 484 281.5 483.2 282.3 479.2 278.5"/>	</g></g><g display="none">	<g display="inline">		<polygon points="477.7 280 478.5 279.2 482.3 283.2 481.5 284"/>	</g>	<g display="inline">		<polygon points="477.7 280 481.5 276 482.3 276.8 478.5 280.8"/>	</g></g><g display="none">	<g display="inline">		<rect y="279.5" x="475" height="1.1" transform="matrix(.7071 .7071 -.7071 .7071 338.58 -257.4)" width="10"/>	</g>	<g display="inline">		<rect y="275" x="479.4" height="10" transform="matrix(.7071 .7071 -.7071 .7071 338.58 -257.4)" width="1.1"/>	</g></g>		<rect y="279.5" x="475" height="1.1" width="10" fill="#B7B7B7"/><g display="none">	<g display="inline">		<rect y="279.5" x="475" height="1.1" width="10"/>	</g></g><g display="none">	<g display="inline">		<rect y="279.5" x="475" height="1.1" width="10" fill="#B7B7B7"/>	</g>	<g display="inline">		<rect y="275" x="479.4" height="10" width="1.1" fill="#B7B7B7"/>	</g></g><g display="none">	<g display="inline">		<rect y="279.5" x="475" height="1.1" width="10"/>	</g>	<g display="inline">		<rect y="275" x="479.4" height="10" width="1.1"/>	</g></g><path id="Icon_Minus_Grey-01-Search_1_" d="m484.5 283.8l-3-3c0.1-0.1 0.2-0.3 0.3-0.4 0.3-0.5 0.4-1 0.4-1.6 0-1.8-1.5-3.3-3.3-3.3s-3.3 1.5-3.3 3.3 1.5 3.3 3.3 3.3c0.6 0 1.2-0.2 1.7-0.5l0.1-0.1 3.1 3.1 0.7-0.8zm-5.7-2.9c-1.2 0-2.2-1-2.2-2.2s1-2.2 2.2-2.2c1.2 0 2.2 1 2.2 2.2 0 0.4-0.1 0.7-0.3 1.1-0.2 0.3-0.5 0.6-0.8 0.8-0.4 0.2-0.8 0.3-1.1 0.3z" fill="#B7B7B7" display="none"/><path id="Icon_Minus_Grey-01-Search" d="m484.5 283.8l-3-3c0.1-0.1 0.2-0.3 0.3-0.4 0.3-0.5 0.4-1 0.4-1.6 0-1.8-1.5-3.3-3.3-3.3s-3.3 1.5-3.3 3.3 1.5 3.3 3.3 3.3c0.6 0 1.2-0.2 1.7-0.5l0.1-0.1 3.1 3.1 0.7-0.8zm-5.7-2.9c-1.2 0-2.2-1-2.2-2.2s1-2.2 2.2-2.2c1.2 0 2.2 1 2.2 2.2 0 0.4-0.1 0.7-0.3 1.1-0.2 0.3-0.5 0.6-0.8 0.8-0.4 0.2-0.8 0.3-1.1 0.3z" display="none"/></svg><svg xmlns:xlink="http://www.w3.org/1999/xlink" id="Icon_Plus_Black" xml:space="preserve" viewBox="473 273 14 14" version="1.1" y="182" x="0px" enable-background="new 475 275 10 10" width="14" height="14"><g display="none">	<g display="inline">		<polygon points="482.4 280 481.4 280.8 477.6 276.8 478.4 276"/>	</g>	<g display="inline">		<polygon points="482.4 280 478.4 284 477.6 283.2 481.4 279.2"/>	</g></g><g display="none">	<g display="inline">		<polygon points="480 282.3 479.2 281.5 483.2 277.7 484 278.5"/>	</g>	<g display="inline">		<polygon points="480 282.3 476 278.5 476.8 277.7 480.8 281.5"/>	</g></g><g display="none">	<g display="inline">		<polygon points="480 277.7 480.8 278.5 476.8 282.3 476 281.5"/>	</g>	<g display="inline">		<polygon points="480 277.7 484 281.5 483.2 282.3 479.2 278.5"/>	</g></g><g display="none">	<g display="inline">		<polygon points="477.7 280 478.5 279.2 482.3 283.2 481.5 284"/>	</g>	<g display="inline">		<polygon points="477.7 280 481.5 276 482.3 276.8 478.5 280.8"/>	</g></g><g display="none">	<g display="inline">		<rect y="279.5" x="475" height="1.1" transform="matrix(.7071 .7071 -.7071 .7071 338.58 -257.4)" width="10"/>	</g>	<g display="inline">		<rect y="275" x="479.4" height="10" transform="matrix(.7071 .7071 -.7071 .7071 338.58 -257.4)" width="1.1"/>	</g></g><g display="none">	<g display="inline">		<rect y="279.5" x="475" height="1.1" width="10"/>	</g></g>		<rect y="279.5" x="475" height="1.1" width="10"/>		<rect y="275" x="479.4" height="10" width="1.1"/><path id="Icon_Plus_Black-Search_1_" d="m484.5 283.8l-3-3c0.1-0.1 0.2-0.3 0.3-0.4 0.3-0.5 0.4-1 0.4-1.6 0-1.8-1.5-3.3-3.3-3.3s-3.3 1.5-3.3 3.3 1.5 3.3 3.3 3.3c0.6 0 1.2-0.2 1.7-0.5l0.1-0.1 3.1 3.1 0.7-0.8zm-5.7-2.9c-1.2 0-2.2-1-2.2-2.2s1-2.2 2.2-2.2c1.2 0 2.2 1 2.2 2.2 0 0.4-0.1 0.7-0.3 1.1-0.2 0.3-0.5 0.6-0.8 0.8-0.4 0.2-0.8 0.3-1.1 0.3z" fill="#B7B7B7" display="none"/><path id="Icon_Plus_Black-Search" d="m484.5 283.8l-3-3c0.1-0.1 0.2-0.3 0.3-0.4 0.3-0.5 0.4-1 0.4-1.6 0-1.8-1.5-3.3-3.3-3.3s-3.3 1.5-3.3 3.3 1.5 3.3 3.3 3.3c0.6 0 1.2-0.2 1.7-0.5l0.1-0.1 3.1 3.1 0.7-0.8zm-5.7-2.9c-1.2 0-2.2-1-2.2-2.2s1-2.2 2.2-2.2c1.2 0 2.2 1 2.2 2.2 0 0.4-0.1 0.7-0.3 1.1-0.2 0.3-0.5 0.6-0.8 0.8-0.4 0.2-0.8 0.3-1.1 0.3z" display="none"/></svg><svg xmlns:xlink="http://www.w3.org/1999/xlink" id="Icon_Plus_Grey" xml:space="preserve" viewBox="473 273 14 14" version="1.1" y="196" x="0px" enable-background="new 475 275 10 10" width="14" height="14"><g display="none">	<g display="inline">		<polygon points="482.4 280 481.4 280.8 477.6 276.8 478.4 276"/>	</g>	<g display="inline">		<polygon points="482.4 280 478.4 284 477.6 283.2 481.4 279.2"/>	</g></g><g display="none">	<g display="inline">		<polygon points="480 282.3 479.2 281.5 483.2 277.7 484 278.5"/>	</g>	<g display="inline">		<polygon points="480 282.3 476 278.5 476.8 277.7 480.8 281.5"/>	</g></g><g display="none">	<g display="inline">		<polygon points="480 277.7 480.8 278.5 476.8 282.3 476 281.5"/>	</g>	<g display="inline">		<polygon points="480 277.7 484 281.5 483.2 282.3 479.2 278.5"/>	</g></g><g display="none">	<g display="inline">		<polygon points="477.7 280 478.5 279.2 482.3 283.2 481.5 284"/>	</g>	<g display="inline">		<polygon points="477.7 280 481.5 276 482.3 276.8 478.5 280.8"/>	</g></g><g display="none">	<g display="inline">		<rect y="279.5" x="475" height="1.1" transform="matrix(.7071 .7071 -.7071 .7071 338.58 -257.4)" width="10"/>	</g>	<g display="inline">		<rect y="275" x="479.4" height="10" transform="matrix(.7071 .7071 -.7071 .7071 338.58 -257.4)" width="1.1"/>	</g></g><g display="none">	<g display="inline">		<rect y="279.5" x="475" height="1.1" width="10"/>	</g></g>		<rect y="279.5" x="475" height="1.1" width="10" fill="#B7B7B7"/>		<rect y="275" x="479.4" height="10" width="1.1" fill="#B7B7B7"/><g display="none">	<g display="inline">		<rect y="279.5" x="475" height="1.1" width="10"/>	</g>	<g display="inline">		<rect y="275" x="479.4" height="10" width="1.1"/>	</g></g><path id="Icon_Plus_Grey-Search_1_" d="m484.5 283.8l-3-3c0.1-0.1 0.2-0.3 0.3-0.4 0.3-0.5 0.4-1 0.4-1.6 0-1.8-1.5-3.3-3.3-3.3s-3.3 1.5-3.3 3.3 1.5 3.3 3.3 3.3c0.6 0 1.2-0.2 1.7-0.5l0.1-0.1 3.1 3.1 0.7-0.8zm-5.7-2.9c-1.2 0-2.2-1-2.2-2.2s1-2.2 2.2-2.2c1.2 0 2.2 1 2.2 2.2 0 0.4-0.1 0.7-0.3 1.1-0.2 0.3-0.5 0.6-0.8 0.8-0.4 0.2-0.8 0.3-1.1 0.3z" fill="#B7B7B7" display="none"/><path id="Icon_Plus_Grey-Search" d="m484.5 283.8l-3-3c0.1-0.1 0.2-0.3 0.3-0.4 0.3-0.5 0.4-1 0.4-1.6 0-1.8-1.5-3.3-3.3-3.3s-3.3 1.5-3.3 3.3 1.5 3.3 3.3 3.3c0.6 0 1.2-0.2 1.7-0.5l0.1-0.1 3.1 3.1 0.7-0.8zm-5.7-2.9c-1.2 0-2.2-1-2.2-2.2s1-2.2 2.2-2.2c1.2 0 2.2 1 2.2 2.2 0 0.4-0.1 0.7-0.3 1.1-0.2 0.3-0.5 0.6-0.8 0.8-0.4 0.2-0.8 0.3-1.1 0.3z" display="none"/></svg><svg xmlns:xlink="http://www.w3.org/1999/xlink" id="Icon_Search_Black" xml:space="preserve" viewBox="473 273 14 14" version="1.1" y="210" x="0px" enable-background="new 475 275 10 10" width="14" height="14"><g display="none">	<g display="inline">		<polygon points="482.4 280 481.4 280.8 477.6 276.8 478.4 276"/>	</g>	<g display="inline">		<polygon points="482.4 280 478.4 284 477.6 283.2 481.4 279.2"/>	</g></g><g display="none">	<g display="inline">		<polygon points="480 282.3 479.2 281.5 483.2 277.7 484 278.5"/>	</g>	<g display="inline">		<polygon points="480 282.3 476 278.5 476.8 277.7 480.8 281.5"/>	</g></g><g display="none">	<g display="inline">		<polygon points="480 277.7 480.8 278.5 476.8 282.3 476 281.5"/>	</g>	<g display="inline">		<polygon points="480 277.7 484 281.5 483.2 282.3 479.2 278.5"/>	</g></g><g display="none">	<g display="inline">		<polygon points="477.7 280 478.5 279.2 482.3 283.2 481.5 284"/>	</g>	<g display="inline">		<polygon points="477.7 280 481.5 276 482.3 276.8 478.5 280.8"/>	</g></g><g display="none">	<g display="inline">		<rect y="279.5" x="475" height="1.1" transform="matrix(.7071 .7071 -.7071 .7071 338.58 -257.4)" width="10"/>	</g>	<g display="inline">		<rect y="275" x="479.4" height="10" transform="matrix(.7071 .7071 -.7071 .7071 338.58 -257.4)" width="1.1"/>	</g></g><g display="none">	<g display="inline">		<rect y="279.5" x="475" height="1.1" width="10"/>	</g></g><g display="none">	<g display="inline">		<rect y="279.5" x="475" height="1.1" width="10"/>	</g>	<g display="inline">		<rect y="275" x="479.4" height="10" width="1.1"/>	</g></g><path id="Icon_Search_Black-Search_1_" d="m484.5 283.8l-3-3c0.1-0.1 0.2-0.3 0.3-0.4 0.3-0.5 0.4-1 0.4-1.6 0-1.8-1.5-3.3-3.3-3.3s-3.3 1.5-3.3 3.3 1.5 3.3 3.3 3.3c0.6 0 1.2-0.2 1.7-0.5l0.1-0.1 3.1 3.1 0.7-0.8zm-5.7-2.9c-1.2 0-2.2-1-2.2-2.2s1-2.2 2.2-2.2c1.2 0 2.2 1 2.2 2.2 0 0.4-0.1 0.7-0.3 1.1-0.2 0.3-0.5 0.6-0.8 0.8-0.4 0.2-0.8 0.3-1.1 0.3z" fill="#B7B7B7" display="none"/><path id="Icon_Search_Black-Search" d="m484.5 283.8l-3-3c0.1-0.1 0.2-0.3 0.3-0.4 0.3-0.5 0.4-1 0.4-1.6 0-1.8-1.5-3.3-3.3-3.3s-3.3 1.5-3.3 3.3 1.5 3.3 3.3 3.3c0.6 0 1.2-0.2 1.7-0.5l0.1-0.1 3.1 3.1 0.7-0.8zm-5.7-2.9c-1.2 0-2.2-1-2.2-2.2s1-2.2 2.2-2.2c1.2 0 2.2 1 2.2 2.2 0 0.4-0.1 0.7-0.3 1.1-0.2 0.3-0.5 0.6-0.8 0.8-0.4 0.2-0.8 0.3-1.1 0.3z"/></svg><svg xmlns:xlink="http://www.w3.org/1999/xlink" id="Icon_Search_Grey" xml:space="preserve" viewBox="473 273 14 14" version="1.1" y="224" x="0px" enable-background="new 475 275 10 10" width="14" height="14"><g display="none">	<g display="inline">		<polygon points="482.4 280 481.4 280.8 477.6 276.8 478.4 276"/>	</g>	<g display="inline">		<polygon points="482.4 280 478.4 284 477.6 283.2 481.4 279.2"/>	</g></g><g display="none">	<g display="inline">		<polygon points="480 282.3 479.2 281.5 483.2 277.7 484 278.5"/>	</g>	<g display="inline">		<polygon points="480 282.3 476 278.5 476.8 277.7 480.8 281.5"/>	</g></g><g display="none">	<g display="inline">		<polygon points="480 277.7 480.8 278.5 476.8 282.3 476 281.5"/>	</g>	<g display="inline">		<polygon points="480 277.7 484 281.5 483.2 282.3 479.2 278.5"/>	</g></g><g display="none">	<g display="inline">		<polygon points="477.7 280 478.5 279.2 482.3 283.2 481.5 284"/>	</g>	<g display="inline">		<polygon points="477.7 280 481.5 276 482.3 276.8 478.5 280.8"/>	</g></g><g display="none">	<g display="inline">		<rect y="279.5" x="475" height="1.1" transform="matrix(.7071 .7071 -.7071 .7071 338.58 -257.4)" width="10"/>	</g>	<g display="inline">		<rect y="275" x="479.4" height="10" transform="matrix(.7071 .7071 -.7071 .7071 338.58 -257.4)" width="1.1"/>	</g></g><g display="none">	<g display="inline">		<rect y="279.5" x="475" height="1.1" width="10"/>	</g></g><g display="none">	<g display="inline">		<rect y="279.5" x="475" height="1.1" width="10"/>	</g>	<g display="inline">		<rect y="275" x="479.4" height="10" width="1.1"/>	</g></g><path id="Icon_Search_Grey-Search_1_" d="m484.5 283.8l-3-3c0.1-0.1 0.2-0.3 0.3-0.4 0.3-0.5 0.4-1 0.4-1.6 0-1.8-1.5-3.3-3.3-3.3s-3.3 1.5-3.3 3.3 1.5 3.3 3.3 3.3c0.6 0 1.2-0.2 1.7-0.5l0.1-0.1 3.1 3.1 0.7-0.8zm-5.7-2.9c-1.2 0-2.2-1-2.2-2.2s1-2.2 2.2-2.2c1.2 0 2.2 1 2.2 2.2 0 0.4-0.1 0.7-0.3 1.1-0.2 0.3-0.5 0.6-0.8 0.8-0.4 0.2-0.8 0.3-1.1 0.3z" fill="#B7B7B7"/><path id="Icon_Search_Grey-Search" d="m484.5 283.8l-3-3c0.1-0.1 0.2-0.3 0.3-0.4 0.3-0.5 0.4-1 0.4-1.6 0-1.8-1.5-3.3-3.3-3.3s-3.3 1.5-3.3 3.3 1.5 3.3 3.3 3.3c0.6 0 1.2-0.2 1.7-0.5l0.1-0.1 3.1 3.1 0.7-0.8zm-5.7-2.9c-1.2 0-2.2-1-2.2-2.2s1-2.2 2.2-2.2c1.2 0 2.2 1 2.2 2.2 0 0.4-0.1 0.7-0.3 1.1-0.2 0.3-0.5 0.6-0.8 0.8-0.4 0.2-0.8 0.3-1.1 0.3z" display="none"/></svg></svg>
